<?xml version="1.0" standalone="no"?>
<!DOCTYPE svg PUBLIC "-//W3C//DTD SVG 20010904//EN"
 "http://www.w3.org/TR/2001/REC-SVG-20010904/DTD/svg10.dtd">
<svg version="1.0" xmlns="http://www.w3.org/2000/svg"
 width="180.000000pt" height="180.000000pt" viewBox="0 0 180.000000 180.000000"
 preserveAspectRatio="xMidYMid meet">
<metadata>
Created by potrace 1.14, written by Peter Selinger 2001-2017
</metadata>
<g transform="translate(0.000000,180.000000) scale(0.100000,-0.100000)"
fill="#000000" stroke="none">
<path d="M40 1655 c0 -118 1 -125 20 -125 18 0 20 7 20 55 l0 55 45 0 c33 0
45 4 45 15 0 11 -12 15 -45 15 l-45 0 0 40 0 40 50 0 c38 0 50 4 50 15 0 12
-14 15 -70 15 l-70 0 0 -125z"/>
<path d="M233 1713 c-7 -2 -13 -10 -13 -17 0 -8 16 -12 47 -12 36 1 48 -3 51
-15 2 -12 -7 -18 -38 -22 -51 -7 -70 -22 -70 -58 0 -43 23 -59 85 -57 l55 2 0
82 c0 72 -3 85 -19 94 -20 10 -76 12 -98 3z m87 -111 c0 -24 -19 -42 -46 -42
-29 0 -40 31 -18 47 27 20 64 17 64 -5z"/>
<path d="M390 1713 c0 -5 13 -47 28 -93 25 -75 32 -85 52 -85 21 0 28 11 57
93 30 86 31 92 13 92 -15 0 -24 -15 -41 -70 -13 -38 -25 -67 -28 -64 -3 3 -15
33 -27 67 -13 39 -27 63 -37 65 -10 2 -17 0 -17 -5z"/>
<path d="M1140 1500 c-38 -77 -70 -148 -70 -157 0 -10 -161 -179 -367 -385
l-368 -366 -132 -66 -133 -66 0 -150 c0 -143 1 -150 22 -164 22 -16 25 -13
113 74 l90 90 65 -65 64 -65 -67 -68 -68 -69 42 -18 41 -19 147 74 146 75 3
150 2 150 292 292 292 292 131 3 130 3 75 146 74 147 -19 41 -18 42 -69 -68
-68 -67 -65 64 -65 65 90 90 c87 88 90 91 74 113 -14 21 -21 22 -165 22 l-149
0 -70 -140z m247 12 c-44 -45 -77 -86 -77 -97 0 -12 37 -57 90 -110 l90 -89
56 54 56 55 -58 -117 -59 -118 -122 0 -123 0 -62 125 -63 125 63 125 62 125
112 0 113 0 -78 -78z m-239 -349 l54 -106 -288 -288 -287 -287 -110 55 -110
55 339 339 c186 186 341 339 344 339 3 0 29 -48 58 -107z m-648 -673 l120 -60
0 -123 0 -122 -117 -59 -118 -58 55 56 54 56 -89 90 c-53 53 -98 90 -110 90
-11 0 -52 -33 -97 -77 l-78 -78 0 113 0 112 118 59 c64 33 123 60 130 60 7 1
66 -26 132 -59z"/>
<path d="M40 1165 c0 -118 1 -125 20 -125 19 0 20 7 20 125 0 118 -1 125 -20
125 -19 0 -20 -7 -20 -125z"/>
<path d="M151 1204 c-30 -38 -29 -113 2 -142 25 -24 66 -28 98 -12 25 14 26
45 2 35 -59 -25 -87 -8 -87 50 0 58 28 75 87 50 24 -10 23 21 -2 35 -36 19
-78 12 -100 -16z"/>
<path d="M325 1205 c-33 -32 -35 -100 -4 -139 27 -35 86 -36 125 -3 37 32 39
105 4 142 -32 34 -91 35 -125 0z m99 -27 c20 -28 20 -58 0 -86 -18 -26 -56
-29 -75 -6 -17 20 -17 78 0 98 19 23 57 20 75 -6z"/>
<path d="M520 1135 c0 -78 3 -95 15 -95 12 0 15 14 15 63 0 49 4 68 18 80 45
41 72 13 72 -75 0 -54 3 -68 15 -68 24 0 21 151 -3 173 -21 19 -54 22 -83 7
-13 -7 -19 -7 -19 0 0 5 -7 10 -15 10 -12 0 -15 -17 -15 -95z"/>
</g>
</svg>
